<?xml version="1.0" encoding="UTF-8" standalone="no"?>
<!-- Created with Inkscape (http://www.inkscape.org/) -->

<svg
   version="1.1"
   id="svg11297"
   width="880"
   height="880"
   viewBox="0 0 880 880"
   sodipodi:docname="skull-black-white-publicdomain.svg"
   inkscape:version="1.2 (dc2aedaf03, 2022-05-15)"
   xmlns:inkscape="http://www.inkscape.org/namespaces/inkscape"
   xmlns:sodipodi="http://sodipodi.sourceforge.net/DTD/sodipodi-0.dtd"
   xmlns="http://www.w3.org/2000/svg"
   xmlns:svg="http://www.w3.org/2000/svg">
  <defs
     id="defs11301">
    <clipPath
       clipPathUnits="userSpaceOnUse"
       id="clipPath11313">
      <path
         d="M 0,660 H 660 V 0 H 0 Z"
         id="path11311" />
    </clipPath>
  </defs>
  <sodipodi:namedview
     id="namedview11299"
     pagecolor="#ffffff"
     bordercolor="#000000"
     borderopacity="0.25"
     inkscape:showpageshadow="2"
     inkscape:pageopacity="0.0"
     inkscape:pagecheckerboard="0"
     inkscape:deskcolor="#d1d1d1"
     showgrid="false"
     inkscape:zoom="0.95113636"
     inkscape:cx="441.05137"
     inkscape:cy="440.52569"
     inkscape:window-width="1920"
     inkscape:window-height="1017"
     inkscape:window-x="-8"
     inkscape:window-y="-8"
     inkscape:window-maximized="1"
     inkscape:current-layer="g11305">
    <inkscape:page
       x="0"
       y="0"
       id="page11303"
       width="880"
       height="880" />
  </sodipodi:namedview>
  <g
     id="g11305"
     inkscape:groupmode="layer"
     inkscape:label="Page 1"
     transform="matrix(1.3333333,0,0,-1.3333333,0,880)">
    <g
       id="g11307">
      <g
         id="g11309"
         clip-path="url(#clipPath11313)">
        <g
           id="g11315"
           transform="translate(258.5098,324.6201)">
          <path
             d="M 0,0 C 0.797,0.787 2.103,1.376 3.484,1.76 6.297,2.51 9.435,2.653 12.541,2.537 15.657,2.425 18.795,2.06 21.918,1.575 18.91,2.544 15.854,3.408 12.711,4.027 9.567,4.641 6.338,5.047 2.928,4.708 1.231,4.498 -0.562,4.118 -2.281,2.979 -3.134,2.435 -3.949,1.617 -4.504,0.59 -5.07,-0.43 -5.338,-1.645 -5.302,-2.79 c 0.04,-0.791 0.193,-1.537 0.419,-2.241 -2.75,0.285 -5.528,0.323 -8.284,0.086 -6.634,-0.548 -13.114,-2.664 -18.767,-6 -5.669,-3.32 -10.489,-7.891 -13.986,-13.23 2.679,1.76 5.249,3.508 7.936,5.013 2.664,1.531 5.395,2.857 8.165,3.999 5.536,2.286 11.304,3.742 17.166,4.241 5.856,0.505 11.798,0.093 17.571,-1.327 5.782,-1.418 11.389,-3.769 16.496,-7.593 -1.603,2.778 -3.904,5.166 -6.469,7.203 -2.594,2.007 -5.507,3.619 -8.572,4.861 -0.477,0.191 -0.963,0.356 -1.445,0.53 l 0.011,0.014 c -0.088,0.019 -0.195,0.056 -0.299,0.091 -0.089,0.03 -0.181,0.063 -0.28,0.102 -1.114,0.453 -2.723,1.498 -3.45,2.116 -0.885,0.715 -1.512,1.667 -1.728,2.523 -0.092,0.426 -0.085,0.815 0.035,1.213 C -0.666,-0.796 -0.422,-0.376 0,0 m 154.094,-186.753 c -1.223,-1.622 -2.583,-2.922 -4.129,-3.648 -3.038,-1.495 -6.916,-1.266 -11.133,-0.951 -4.196,0.295 -8.825,0.788 -13.601,-0.333 -2.358,-0.571 -4.713,-1.637 -6.55,-3.261 -1.841,-1.617 -3.129,-3.68 -3.78,-5.848 1.748,1.464 3.503,2.65 5.355,3.356 1.839,0.722 3.72,1.026 5.664,1.085 3.894,0.127 8.003,-0.653 12.468,-0.981 2.235,-0.149 4.582,-0.228 7.04,0.131 2.432,0.352 5.054,1.215 7.158,2.898 2.123,1.669 3.446,4.004 4.146,6.27 0.663,2.305 0.809,4.607 0.629,6.86 -1.085,-2.004 -2.059,-3.933 -3.267,-5.578 m -97.627,-8.193 c -1.838,1.624 -4.193,2.69 -6.551,3.261 -4.775,1.121 -9.404,0.628 -13.602,0.333 -4.214,-0.315 -8.092,-0.544 -11.13,0.951 -1.547,0.726 -2.908,2.026 -4.129,3.648 -1.208,1.645 -2.184,3.574 -3.268,5.578 -0.182,-2.253 -0.033,-4.555 0.629,-6.86 0.7,-2.266 2.021,-4.601 4.145,-6.27 2.105,-1.683 4.726,-2.546 7.158,-2.898 2.459,-0.359 4.805,-0.28 7.041,-0.131 4.466,0.328 8.572,1.108 12.468,0.981 1.944,-0.059 3.825,-0.363 5.664,-1.085 1.852,-0.706 3.606,-1.892 5.354,-3.356 -0.65,2.168 -1.937,4.231 -3.779,5.848 m 21.06,34.52 c -6.771,0.016 -13.544,-1.334 -19.744,-3.833 -3.098,-1.258 -6.055,-2.787 -8.855,-4.506 -1.385,-0.886 -2.76,-1.759 -4.094,-2.686 -0.666,-0.464 -1.332,-0.921 -2.006,-1.36 -0.668,-0.466 -1.349,-0.871 -2.082,-1.251 1.654,0.117 3.258,0.648 4.813,1.125 1.562,0.484 3.078,1.039 4.609,1.517 3.045,1 6.051,1.943 9.08,2.694 6.045,1.514 12.144,2.316 18.269,2.301 6.124,-0.032 12.251,-0.833 18.356,-2.219 6.105,-1.408 12.157,-3.371 18.393,-5.418 -5.018,4.231 -10.81,7.526 -17.022,9.93 -6.227,2.349 -12.942,3.686 -19.717,3.706 m 114.306,146.925 c -5.761,3.337 -12.277,5.407 -18.931,6.096 -4.002,0.414 -8.072,0.34 -12.061,-0.269 0.848,1.421 1.524,2.981 1.81,4.746 0.117,0.949 0.134,1.949 -0.13,2.973 -0.281,1.026 -0.885,1.998 -1.676,2.684 -1.651,1.326 -3.501,1.559 -5.113,1.562 C 154.093,4.272 152.545,4 151.037,3.65 c -3.002,-0.738 -5.826,-1.856 -8.586,-3.075 2.92,0.747 5.879,1.374 8.82,1.594 1.465,0.092 2.928,0.092 4.292,-0.121 1.359,-0.2 2.602,-0.743 3.196,-1.475 0.274,-0.376 0.413,-0.762 0.457,-1.211 0.023,-0.459 -0.074,-0.979 -0.232,-1.508 -0.38,-1.074 -1.066,-2.158 -1.911,-3.108 -1.262,-1.406 -3.711,-3.767 -5.758,-5.043 -0.611,-0.256 -1.212,-0.534 -1.808,-0.823 -0.035,-0.008 -0.074,-0.022 -0.109,-0.027 l 0.017,-0.018 c -1.821,-0.891 -3.57,-1.923 -5.178,-3.145 -2.634,-2.043 -4.973,-4.492 -6.491,-7.365 5.029,4.072 10.733,6.336 16.618,7.557 5.892,1.2 11.946,1.366 17.91,0.748 5.968,-0.632 11.853,-2.081 17.471,-4.36 5.632,-2.276 10.942,-5.419 16.001,-9.445 -3.154,5.668 -8.171,10.337 -13.913,13.674 M 235.978,137.4 c -4.242,15.922 -12.383,37.654 -27.916,59.987 -0.617,-0.88 -0.964,-1.975 -1.158,-3.113 -0.251,-1.484 -0.264,-3.054 -0.211,-4.627 0.319,-6.323 1.362,-12.797 1.795,-19.406 0.427,-6.605 0.332,-13.416 -1.077,-20.186 -0.564,-2.858 -0.682,-5.754 -0.352,-8.623 0.326,-2.872 1.123,-5.7 2.193,-8.462 2.174,-5.535 5.576,-10.708 9.338,-15.757 1.887,-2.534 3.904,-5.014 5.919,-7.623 1.009,-1.302 2.027,-2.633 3.036,-4.045 1.006,-1.422 2.013,-2.9 2.945,-4.704 0.461,-0.909 0.911,-1.903 1.258,-3.135 0.324,-1.224 0.615,-2.75 0.24,-4.61 l -0.311,-1.355 c -0.079,-0.336 -0.166,-0.669 -0.216,-1.01 l -0.181,-1.013 -0.127,-1.038 c -0.334,-2.761 -0.261,-5.874 -0.187,-9.042 0.148,-6.37 0.487,-12.955 0.575,-19.481 l 0.114,-9.812 c 0.021,-1.635 0.003,-3.27 -0.009,-4.904 l -0.027,-4.835 c 0.02,-3.029 0.138,-6.039 0.433,-8.981 1.93,11.48 4.802,29.539 9.1,58.035 l 0.318,2.1 c 0.509,3.373 1.072,21.004 -5.492,45.64 M 222.612,95.044 c 0.024,0.086 0.011,0.052 0.006,0.038 l -0.011,-0.043 v -0.015 z m 12.526,-111.581 c -0.313,-0.241 -0.639,-0.471 -0.98,-0.683 l -1.069,-0.646 c -0.383,-0.171 -0.77,-0.33 -1.156,-0.486 -0.766,-0.349 -1.564,-0.49 -2.351,-0.665 -0.786,-0.167 -1.548,-0.157 -2.314,-0.217 -0.733,0.033 -1.473,0.06 -2.173,0.151 -1.392,0.206 -2.696,0.53 -3.916,0.944 -2.444,0.828 -4.619,1.916 -6.698,3.069 -4.13,2.331 -7.885,4.949 -11.72,7.375 -1.918,1.205 -3.851,2.369 -5.875,3.332 -2.017,0.949 -4.175,1.728 -6.473,1.521 2.224,0.633 4.669,0.249 6.898,-0.346 2.257,-0.604 4.437,-1.426 6.584,-2.28 4.28,-1.719 8.46,-3.609 12.636,-5.042 2.081,-0.701 4.167,-1.284 6.148,-1.562 1.964,-0.275 3.857,-0.235 5.116,0.341 1.264,0.556 2.025,1.39 2.709,2.735 0.412,0.829 2.016,8.739 3.248,15.1 -1.329,1.034 -2.662,2.267 -3.78,3.635 -2.576,3.141 -4.154,6.706 -5.249,10.164 -2.152,6.971 -2.665,13.836 -2.831,20.583 l -0.137,9.766 -0.182,9.693 -0.496,19.516 c -0.007,3.327 -0.039,6.742 0.469,10.436 l 0.202,1.378 0.275,1.381 c 0.084,0.463 0.206,0.915 0.324,1.368 l 0.176,0.681 0.077,0.293 c -0.004,0.06 -0.014,0.139 -0.042,0.252 -0.076,0.338 -0.265,0.849 -0.524,1.395 -0.522,1.106 -1.295,2.36 -2.132,3.613 -0.844,1.261 -1.761,2.542 -2.706,3.838 -1.894,2.587 -3.842,5.262 -5.735,8.019 -2.025,2.946 -3.972,6.034 -5.694,9.295 -1.394,1.909 -3.04,3.73 -4.84,5.435 -2.632,2.489 -5.58,4.756 -8.699,6.817 -3.121,2.06 -6.416,3.921 -9.832,5.564 -3.421,1.632 -6.951,3.085 -10.65,4.099 3.822,-0.358 7.621,-1.189 11.355,-2.227 3.733,-1.051 7.416,-2.349 11.022,-3.913 2.308,-1.004 4.58,-2.132 6.808,-3.387 -0.554,2.306 -0.929,4.671 -1.05,7.07 -0.184,3.613 0.216,7.28 1.202,10.738 0.777,2.704 1.329,5.495 1.726,8.338 -1.361,4.108 -3.899,11.065 -4.394,12.413 -0.731,1.814 -1.527,3.65 -2.473,5.463 -1.849,3.636 -4.012,7.213 -6.331,10.706 -4.659,6.982 -9.91,13.68 -15.591,19.993 -5.687,6.311 -11.775,12.309 -18.423,17.642 -3.325,2.664 -6.787,5.167 -10.449,7.362 -3.66,2.185 -7.525,4.087 -11.668,5.28 4.24,-0.785 8.337,-2.324 12.257,-4.177 3.924,-1.864 7.687,-4.062 11.327,-6.441 7.284,-4.766 14.072,-10.262 20.507,-16.147 6.436,-5.893 12.487,-12.225 18.075,-19.059 2.786,-3.427 5.449,-6.986 7.887,-10.808 0.065,-0.101 0.12,-0.191 0.181,-0.288 -0.009,2.587 0,5.196 0.24,7.842 0.157,1.672 0.378,3.365 0.887,5.046 0.43,1.403 1.105,2.892 2.261,3.977 -4.863,6.866 -10.421,13.778 -16.795,20.587 -36.64,39.143 -78.38,59.881 -120.729,59.99 -38.777,-5.267 -84.876,-28.57 -114.824,-58.062 -26.214,-25.819 -39.507,-64.489 -39.507,-114.938 0,-26.816 6.157,-62.548 11.648,-82.184 0.349,0.93 0.688,1.867 1.008,2.815 0.686,2.048 1.314,4.124 1.927,6.212 1.173,4.187 2.194,8.438 2.96,12.733 0.777,4.294 1.298,8.633 1.387,12.986 0.023,2.173 -0.094,4.348 -0.481,6.485 -0.361,2.139 -1.028,4.247 -2.283,6.12 1.701,-1.493 2.857,-3.579 3.728,-5.704 0.839,-2.154 1.379,-4.41 1.783,-6.678 0.766,-4.547 0.885,-9.155 0.727,-13.727 -0.183,-4.574 -0.678,-9.127 -1.437,-13.646 -0.656,-3.855 -1.505,-7.681 -2.614,-11.498 0.188,-2.361 0.386,-4.792 0.401,-4.861 0.025,-0.138 0.069,-0.299 0.106,-0.452 0.071,-0.307 0.161,-0.622 0.253,-0.939 0.178,-0.63 0.389,-1.269 0.615,-1.897 0.442,-1.266 0.987,-2.489 1.582,-3.683 1.195,-2.381 2.704,-4.555 4.535,-6.321 1.825,-1.771 3.982,-3.13 6.437,-3.853 2.362,-0.785 4.82,-0.762 7.452,-0.017 2.628,0.728 5.318,2.078 8.096,3.399 2.775,1.327 5.679,2.634 8.736,3.495 3.045,0.881 6.227,1.288 9.345,1.176 3.122,-0.12 6.173,-0.705 9.089,-1.618 -3.015,0.509 -6.071,0.662 -9.049,0.369 -2.978,-0.303 -5.857,-1.087 -8.545,-2.28 -2.699,-1.179 -5.209,-2.743 -7.74,-4.411 -2.539,-1.652 -5.11,-3.464 -8.226,-4.83 -1.553,-0.676 -3.256,-1.216 -5.059,-1.471 -1.795,-0.258 -3.687,-0.23 -5.458,0.088 -3.528,0.522 -6.955,2.044 -9.83,4.15 -2.899,2.103 -5.291,4.733 -7.252,7.564 -0.605,0.881 -1.168,1.784 -1.707,2.701 -0.302,-0.439 -0.609,-0.872 -0.911,-1.3 -1.35,-1.894 -2.748,-3.683 -3.591,-5.121 -0.837,-1.494 -1.048,-2.301 -0.92,-3.672 0.129,-1.353 0.638,-3.129 1.413,-4.949 0.333,-0.899 0.814,-1.838 1.235,-2.763 l 1.464,-3.074 c 1.938,-4.18 3.574,-8.456 5.303,-12.289 0.843,-1.923 1.735,-3.683 2.677,-5.034 0.963,-1.367 1.839,-2.116 2.803,-2.515 0.5,-0.208 1.08,-0.351 1.786,-0.411 l 0.252,-0.04 0.463,-0.028 c 0.317,-0.023 0.646,-0.037 0.952,-0.067 0.622,-0.052 1.235,-0.112 1.836,-0.186 2.414,-0.285 4.733,-0.691 7.031,-1.207 4.584,-1.035 9.078,-2.347 13.446,-4.095 4.366,-1.733 8.634,-3.815 12.629,-6.482 2.002,-1.32 3.919,-2.803 5.725,-4.444 1.803,-1.639 3.495,-3.452 4.936,-5.489 0.716,-1.019 1.397,-2.067 1.986,-3.176 0.319,-0.537 0.574,-1.116 0.839,-1.684 0.128,-0.282 0.274,-0.578 0.385,-0.847 l 0.314,-0.788 c 0.837,-2.104 1.649,-4.213 2.417,-6.337 1.518,-4.253 2.913,-8.537 4.126,-12.867 l 1.646,-6.018 c 1.924,2.046 4.531,3.432 5.987,3.451 0.234,1.677 0.493,3.324 0.775,4.947 l 2.061,11.377 c 0.648,3.774 1.275,7.547 1.629,11.338 0.169,1.894 0.308,3.796 0.288,5.699 0.045,0.96 -0.084,1.892 -0.136,2.85 -0.014,0.484 -0.108,0.946 -0.205,1.414 l -0.276,1.417 0.518,-1.35 c 0.177,-0.453 0.357,-0.911 0.453,-1.386 0.221,-0.94 0.519,-1.889 0.641,-2.852 0.357,-1.922 0.552,-3.863 0.717,-5.808 0.312,-3.892 0.345,-7.782 0.358,-11.661 l -0.072,-11.563 c 10e-4,-0.674 0.01,-1.34 0.018,-2.006 0.824,0.306 1.857,0.084 3.188,-1.04 0.689,-0.583 1.273,-1.076 1.783,-1.507 l 0.271,0.678 c 0.482,1.192 0.885,2.492 1.334,3.737 l 1.198,3.869 1.109,3.921 c 1.42,5.258 2.613,10.604 3.609,15.986 0.976,5.384 1.807,10.814 2.162,16.28 0.166,2.731 0.273,5.473 0.158,8.212 l -0.023,1.031 -0.1,1.021 -0.207,2.05 c -0.038,0.692 -0.209,1.354 -0.349,2.028 l -0.432,2.027 0.674,-1.963 c 0.223,-0.658 0.476,-1.314 0.599,-1.998 l 0.457,-2.038 0.227,-1.023 0.149,-1.032 c 0.451,-2.757 0.68,-5.541 0.847,-8.331 0.309,-5.583 0.135,-11.169 -0.191,-16.749 -0.35,-5.579 -0.903,-11.147 -1.703,-16.708 l -0.651,-4.17 -0.125,-0.684 c 0.565,0.255 1.123,0.274 1.654,-0.054 3.229,-2 6.354,-2.29 7.604,-4.95 1.25,-2.66 9.375,11.2 11.375,7.7 0.779,-1.363 2.156,-3.649 3.629,-5.72 0.26,0.866 0.51,1.744 0.746,2.635 0.815,3.122 1.52,6.322 2.161,9.536 0.634,3.219 1.192,6.461 1.669,9.718 0.448,3.26 0.92,6.526 0.879,9.831 0.705,-3.247 0.904,-6.596 1.119,-9.916 0.188,-3.326 0.292,-6.661 0.316,-10.004 0.015,-3.343 -0.034,-6.695 -0.216,-10.088 -0.082,-1.458 -0.205,-2.932 -0.369,-4.429 2.418,3.45 9.793,7.521 11.703,5.937 1.633,-1.351 5.882,-5.704 9.649,-7.079 l 4.798,31.771 1.803,-29.343 c 3.958,4.332 8.649,12.013 10.788,10.497 1.927,-1.364 5.951,-6.994 8.844,-9.46 -0.359,0.665 -0.683,1.336 -0.97,2.008 -1.275,2.931 -2,5.909 -2.488,8.854 -0.475,2.95 -0.687,5.881 -0.725,8.79 -0.031,2.909 0.084,5.8 0.414,8.654 0.337,-2.848 0.888,-5.653 1.57,-8.399 0.688,-2.743 1.538,-5.427 2.593,-7.969 1.06,-2.534 2.32,-4.948 3.859,-6.978 0.529,-0.719 1.099,-1.376 1.695,-1.971 1.944,1.687 4.254,2.656 5.783,1.125 2.5,-2.5 8.16,-8.583 10,-7 1.145,0.986 3.234,3.802 4.952,5.553 -1.294,4.202 -2.218,8.437 -2.939,12.687 -0.943,5.621 -1.526,11.269 -1.718,16.924 -0.094,2.826 -0.093,5.657 0.063,8.475 0.166,2.814 0.464,5.639 1.142,8.361 -0.349,-2.784 -0.31,-5.58 -0.142,-8.358 0.177,-2.778 0.507,-5.546 0.929,-8.293 0.846,-5.493 2.072,-10.92 3.624,-16.214 1.554,-5.283 3.46,-10.47 5.899,-15.206 0.946,-1.818 1.993,-3.567 3.144,-5.118 1.298,1.506 3.446,1.268 5.288,0.362 -0.121,0.288 -0.236,0.575 -0.353,0.862 -1.019,2.612 -1.586,5.185 -2.004,7.729 -0.812,5.086 -0.94,10.07 -0.879,15.016 0.08,4.945 0.425,9.845 0.916,14.716 0.525,4.868 1.117,9.721 2.078,14.504 -0.298,-4.857 -0.222,-9.727 -0.08,-14.572 0.177,-4.845 0.501,-9.676 1.082,-14.441 0.59,-4.752 1.387,-9.489 2.732,-13.89 0.673,-2.189 1.483,-4.306 2.501,-6.109 0.344,-0.622 0.724,-1.192 1.118,-1.702 0.797,0.828 1.671,1.115 2.637,0.014 0.762,-0.867 1.846,-3.332 3.03,-6.585 0.169,12.18 2.265,23.546 7.48,27.785 9.244,7.514 14.131,7.987 16.665,5.72 5.183,4.153 10.83,6.766 15.985,8.397 1.322,0.627 2.645,1.248 3.976,1.858 5.954,2.721 11.994,5.206 18.251,7.411 1.571,0.548 3.166,1.043 4.825,1.484 0.832,0.219 1.678,0.422 2.587,0.585 0.45,0.083 0.929,0.15 1.436,0.2 0.269,0.018 0.519,0.043 0.826,0.042 0.057,0 0.124,-0.005 0.181,-0.005 0.044,0.054 0.104,0.13 0.17,0.217 0.267,0.363 0.588,0.921 0.872,1.531 0.576,1.236 1.076,2.667 1.512,4.129 1.353,4.663 2.325,9.601 3.106,14.569 m -5.105,-20.457 c -0.096,0.013 -0.182,0.011 -0.262,0.005 0.131,-0.006 0.454,-0.035 0.262,-0.005 m -15.628,-8.641 c -0.021,-0.007 -0.043,-0.011 -0.064,-0.018 l 0.048,-0.023 c 0.006,0.015 0.01,0.028 0.016,0.041 m -10.362,-26.107 c -3.276,0.173 -7.653,-0.155 -12.338,-1.962 -0.36,-3.228 -0.646,-6.463 -0.871,-9.702 -0.765,-11.26 -0.837,-22.56 -0.548,-33.832 0.313,-11.272 1.021,-22.533 2.265,-33.697 0.627,-5.578 1.385,-11.138 2.419,-16.585 0.496,-2.734 1.127,-5.407 1.823,-8.011 0.191,-0.612 0.375,-1.233 0.57,-1.839 7.533,7.058 8.277,17.96 3.046,37.93 -3.647,13.927 -0.245,44.672 3.634,67.698 m -11.995,-110.901 c -0.139,0.365 -0.266,0.723 -0.382,1.076 -0.532,1.51 -0.863,2.962 -1.232,4.423 -0.623,2.898 -1.139,5.772 -1.508,8.633 -0.784,5.726 -1.261,11.426 -1.606,17.125 -0.678,11.396 -0.804,22.777 -0.534,34.143 0.294,11.363 0.953,22.719 2.307,34.001 0.362,2.998 0.775,5.992 1.253,8.974 -2.744,-1.215 -5.563,-2.966 -8.301,-5.426 -3.206,-16.046 -10.259,-46.344 -15.642,-49.462 0.32,-1.849 0.415,-3.692 0.187,-5.222 0.094,-3.015 0.009,-5.524 -0.344,-6.464 -1,-2.666 -5.333,-6 -6.166,-5.166 0.06,-2.619 -0.806,-4.126 -2.179,-4.855 -0.062,-0.156 -0.126,-0.312 -0.188,-0.468 -1.102,-2.772 -2.178,-5.558 -3.216,-8.355 -1.034,-2.798 -2.036,-5.608 -2.939,-8.446 -0.449,-1.419 -0.875,-2.844 -1.238,-4.284 -0.178,-0.721 -0.349,-1.444 -0.466,-2.174 -0.112,-0.729 -0.236,-1.47 -0.108,-2.212 -0.291,0.703 -0.339,1.484 -0.392,2.239 -0.048,0.759 -0.041,1.519 -0.025,2.278 0.036,1.518 0.141,3.032 0.267,4.542 0.26,3.017 0.622,6.021 1.018,9.019 0.358,2.671 0.75,5.337 1.162,7.999 -1.35,0.454 -2.731,1.093 -4.03,1.849 -5.414,-2.598 -4.726,-11.62 -11.731,-10.694 l -7.462,-20.688 0.877,21.539 c -3.501,-0.841 -3.6,-4.779 -10.017,-3.123 -8.5,2.197 -10.759,12.074 -11.093,11.322 -0.333,-0.754 -5.074,-11.988 -13.24,-5.155 -7.231,6.051 -7.748,-5.49 -15.084,1.497 -5.498,-7.321 -12.232,-3.341 -15.25,0.992 -4,-11.172 -11.147,-6.44 -17,-2.971 -7.027,-5.164 -9.883,-7.768 -16.75,0 -1.908,2.159 -4.154,0.338 -7.018,-0.961 l 2.354,-24.057 -8.699,23.402 c -0.99,0.319 -2.031,0.866 -3.137,1.737 -2.25,-2 -5.086,-2.71 -7.815,-2.525 0.436,-1.942 0.881,-3.881 1.302,-5.829 0.697,-3.271 1.383,-6.542 1.98,-9.836 0.568,-3.291 1.211,-6.607 1.283,-9.949 -0.734,3.243 -2.002,6.309 -3.205,9.395 -1.228,3.076 -2.543,6.124 -3.865,9.164 -1.42,3.239 -2.873,6.472 -4.344,9.69 -0.955,0.789 -1.73,1.712 -2.216,2.74 -2.37,5.011 -10.369,6.987 -11.119,9.75 -0.329,1.207 -1.232,3.926 -1.876,7.254 -0.614,1.607 -1.046,3.894 -1.365,7.056 -0.002,0.024 -0.002,0.046 -0.004,0.069 -1.54,4.17 -2.876,8.832 -3.505,9.882 -0.936,1.561 -4.548,27.405 -7.13,46.611 -1.164,0.8 -2.359,1.587 -3.566,2.351 0.23,-1.443 0.448,-2.888 0.649,-4.336 1.416,-10.347 2.212,-20.77 2.674,-31.208 0.443,-10.442 0.539,-20.903 0.169,-31.403 -0.189,-5.252 -0.488,-10.511 -1.025,-15.814 -0.274,-2.654 -0.588,-5.311 -1.057,-8.019 -0.099,-0.671 -0.232,-1.356 -0.376,-2.042 -0.149,-0.691 -0.254,-1.36 -0.44,-2.069 l -0.547,-2.122 -0.492,-1.464 c -0.952,-4.467 -1.898,-9.937 -2.047,-12.245 5.295,-7.04 26.054,-32.832 53.068,-43.243 5.972,-2.3 10.416,-3.622 14.129,-4.298 0.891,1.202 1.779,1.896 2.597,2.49 1.819,1.263 3.514,2.036 5.206,2.747 3.369,1.384 6.68,2.362 10.002,3.261 6.638,1.755 13.275,3.089 19.941,4.195 -6.18,-2.697 -12.267,-5.613 -18.072,-8.834 -2.174,-1.216 -4.322,-2.484 -6.317,-3.828 0.868,0.13 1.762,0.27 2.7,0.419 8.515,1.347 20.154,3.192 44.34,0.868 5.849,0.369 12.507,-0.172 19.543,-0.744 4.227,-0.344 8.535,-0.694 12.863,-0.886 -1.692,1.544 -3.55,3.022 -5.601,4.291 -2.172,1.362 -4.491,2.588 -6.913,3.649 -2.426,1.054 -4.941,1.983 -7.549,2.673 2.701,0.139 5.437,0.023 8.177,-0.253 2.742,-0.284 5.491,-0.766 8.24,-1.466 2.752,-0.689 5.469,-1.703 8.158,-2.962 1.966,-0.933 6.604,-3.602 9.916,-5.759 20.402,1.726 39.654,11.16 51.005,45.99 z m -231.023,22.606 c 0.089,0.32 0.184,0.635 0.262,0.968 0.609,2.369 1.108,4.841 1.567,7.323 0.913,4.977 1.616,10.054 2.21,15.15 1.185,10.203 1.92,20.506 2.31,30.824 0.372,10.316 0.414,20.664 -0.162,30.98 -0.115,1.998 -0.266,3.993 -0.438,5.987 -5.439,3.277 -10.887,5.962 -14.745,7.217 3.28,-21.725 6.559,-51.577 6.62,-62.558 0.051,-9.158 -1.425,-17.434 -2.504,-23.476 -0.497,-2.774 -1.097,-6.137 -1.122,-7.711 1.473,-1.311 3.87,-3.166 6.002,-4.704 m 41.532,15.374 c 3.308,-2.868 6.146,-4.099 7.232,-3.826 0.115,0.028 0.291,0.071 0.473,0.541 0.886,2.275 0.988,8.731 1.056,13.004 0.045,2.88 0.078,4.512 0.231,5.463 -0.228,0.505 -1.361,1.648 -2.821,2.283 -0.96,0.417 -1.476,0.349 -1.552,0.307 l -1.703,1.04 1.701,-1.048 c -2.678,-4.343 -6.631,-16.019 -4.617,-17.764 m -1.877,19.42 c -0.219,0.57 -0.508,1.142 -0.756,1.502 -0.027,-0.032 -0.053,-0.069 -0.08,-0.109 -2.928,-4.113 -6.074,-11.293 -5.283,-13 l 0.129,-0.279 c 0.373,-0.803 1.08,-2.334 1.709,-3.386 1.328,4.373 3.654,12.955 4.281,15.272 m -13.444,-3.481 c 0.386,-3.812 0.888,-5.52 1.206,-6.263 0.045,0.05 0.093,0.102 0.143,0.162 2.251,2.652 5.708,12.394 7.009,16.393 -3.595,-2.461 -8.677,-7.13 -8.358,-10.292 m 45.01,11.549 c 0,4.499 -3.5,27.756 -4.459,30.913 -0.016,0.019 -0.033,0.038 -0.049,0.058 -0.38,0.448 -1.17,1.375 -1.843,1.272 -0.336,-0.053 -2.127,-0.627 -4.594,-6.66 -3.435,-11.492 -0.256,-27.926 1.664,-30 0.467,-0.506 2.433,-0.689 4.914,0.282 2.531,0.991 4.367,2.73 4.367,4.135 m -15.266,-29.259 0.96,-0.544 c 2.757,-1.569 6.187,-3.519 7.392,-3.049 0.375,0.147 0.635,0.817 0.756,1.203 1.48,4.695 0.607,18.065 0.035,19.701 -0.527,0.923 -3.733,2.585 -5.082,2.675 l -0.586,-1.34 c -2.705,-6.18 -7.23,-16.522 -3.475,-18.646 m 32.803,50.619 c -1.578,4.658 -4.666,9.899 -6.435,9.94 h -0.012 c -0.617,0 -1.762,-1.1 -2.977,-4.209 -3.49,-8.928 -3.236,-22.983 -2.193,-26.526 0.594,-2.025 2.053,-3.782 3.897,-4.7 2.121,-1.054 4.73,-1.108 7.769,-0.163 0.731,7.466 0.629,23.659 -0.049,25.658 m 24.106,3.647 c -0.395,0.913 -4.135,4.901 -8.256,5.109 -2.84,0.131 -5.334,-1.652 -7.389,-5.339 -1.361,-2.487 -2.972,-23.462 -2.193,-31.062 16.578,-2.891 20.646,-1.102 21.101,0.942 1.28,5.772 -2.31,27.969 -3.263,30.35 m -11.264,-37.091 c 2.012,-7.623 4.823,-17.869 5.635,-20.003 0.717,-0.256 2.66,-0.438 4.291,0.119 0.709,0.241 1.193,0.583 1.328,0.936 0.641,1.663 0.494,10.106 -0.022,17.863 -4.695,0.87 -9.297,1.308 -11.232,1.085 m -5.925,-2.013 c -4.379,2.09 -8.878,3.55 -10.655,3.544 1.656,-11.247 4.617,-21.634 6.465,-22.541 1.996,-0.912 3.578,-1.157 4.453,-0.687 0.811,0.437 1.16,1.65 1.308,2.593 0.528,3.345 -0.825,12.68 -1.571,17.091 m -15.684,2.849 h -10e-4 c -4.323,2.643 -6.351,3.089 -7.23,3.089 -0.314,0 -0.482,-0.058 -0.553,-0.092 -0.169,-0.081 -0.238,-0.575 -0.252,-0.673 l -0.005,-0.048 c -1.502,-9.981 -2.049,-21.893 -0.467,-23.718 1.559,-1.8 6.404,-2.827 9.596,-2.044 1.09,0.268 1.835,0.725 1.945,1.192 0.822,3.492 -1.965,19.356 -3.033,22.294 m 41.248,-21.36 c 2.504,-0.797 3.477,-0.832 4.355,1.55 1.212,3.289 2.424,13.145 2.967,18.313 -3.658,0.901 -7.288,1.308 -8.474,0.928 -0.153,-3.271 0.069,-17.751 1.152,-20.791 m 22.231,28.568 c -0.034,9.249 -0.684,26.457 -1.899,28.662 -1.622,2.226 -6.597,7.082 -10.684,6.665 -2.188,-0.22 -4.072,-2.026 -5.597,-5.367 -2.311,-5.067 -3.942,-25.502 -1.282,-30.798 0.348,-0.691 1.435,-1.237 3.061,-1.537 5.693,-1.048 14.323,1.187 16.401,2.375 m 17.572,26.286 c -5.254,8.119 -7.547,9.481 -8.494,9.481 -0.052,0 -0.099,-0.005 -0.143,-0.012 -0.35,-0.058 -1.11,-0.833 -1.744,-3.367 -1.044,-4.178 -3.061,-22.981 1.47,-28.784 1.419,-1.819 3.409,-2.812 5.917,-2.951 3.039,-0.171 5.713,0.95 6.584,1.534 0.151,3.092 -0.522,19.359 -3.59,24.099 m -8.363,-32.232 c 0.176,-1.718 1.777,-17.169 3.153,-22.893 0.633,-2.629 2.096,-4.076 3.153,-4.103 0.007,0 0.016,-10e-4 0.025,-10e-4 0.773,0 1.504,0.916 1.96,2.457 1.687,5.703 1.696,21.045 1.343,24.097 -0.965,0.605 -4.398,1.431 -7.392,1.113 -1.469,-0.152 -2.094,-0.518 -2.242,-0.67 M 95.77,-148.926 c 1.752,-0.401 5.588,-0.953 6.631,1.529 1.787,4.238 4.966,17.009 5.439,21.383 -1.981,-0.415 -5.616,-1.668 -7.772,-2.41 -1.736,-0.596 -3.053,-1.049 -4.051,-1.344 -0.31,-7.94 -0.459,-16.335 -0.247,-19.158 m 36.212,-2.139 c 2.511,-2.503 3.4,-2.265 3.433,-2.253 0.332,0.099 1.112,1.045 1.695,3.902 1.465,7.173 2.93,16.938 2.241,20.849 -0.226,1.274 -3.238,2.955 -5.864,2.955 -0.084,0 -0.168,-0.002 -0.252,-0.005 -1.708,-0.072 -1.77,-0.767 -1.797,-1.064 l -0.005,-0.054 c -1.212,-10.278 -1.281,-22.506 0.549,-24.33 m 14.284,49.504 c -0.623,-5.779 -0.66,-15.321 1.808,-18.289 0.508,-0.61 0.96,-0.711 1.297,-0.734 1.178,-0.074 2.068,-0.118 2.7,-0.105 -0.175,0.898 -0.403,2.196 -0.323,3.859 0.143,2.988 -2.256,8.069 -3.843,11.434 -0.89,1.887 -1.409,3.004 -1.639,3.835 m 5.926,8.176 c 0.003,-1.576 0.152,-3.553 0.431,-5.205 1.364,-8.024 4.234,-15.469 5.818,-18.766 0.128,0.519 0.264,1.196 0.391,2.074 0.59,4.052 -3.939,16.537 -6.64,21.897 m -6.281,-35.911 c 0.61,-9.422 3.507,-16.591 7.047,-17.432 0.871,-0.207 1.552,-0.194 1.825,0.04 0.792,0.677 0.557,3.633 0.479,4.604 -0.046,0.588 -0.078,1.517 -0.116,2.645 -0.082,2.454 -0.32,9.632 -1.284,11.549 -0.522,-0.035 -1.108,-0.053 -1.716,-0.074 -1.743,-0.055 -5.368,-0.175 -6.173,-1.063 -0.038,-0.042 -0.075,-0.081 -0.062,-0.269 m 15.337,3.684 c -0.602,-0.616 -1.259,-1.082 -1.833,-1.419 0.031,-0.299 0.067,-0.654 0.11,-1.08 0.547,-5.472 1.061,-9.382 1.537,-11.691 0.337,0.879 0.642,2.09 1.092,3.944 l 0.402,1.637 c 0.614,2.475 -0.38,6.342 -1.308,8.609 m -29.709,6.816 c 1.633,-1.384 6.439,-3.618 8.428,-2.242 1.672,2.58 -1.03,20.983 -3.368,26.021 -1.719,3.704 -3.453,5.592 -4.172,5.949 -0.104,-0.136 -0.276,-0.413 -0.469,-0.945 l -0.321,-0.868 c -0.668,-1.787 -1.786,-4.778 -1.98,-6.815 -0.302,-3.183 0.674,-18.748 1.882,-21.1 M 14.246,-94.975 c -0.023,2.305 -1.101,3.579 -1.707,3.644 -0.44,0.046 -1.632,-0.897 -2.346,-4.148 -2.783,-12.687 -2.169,-22.058 1.617,-25.384 2.049,0.274 3.22,0.554 3.862,0.754 -0.439,4.553 -1.844,19.853 -1.426,25.134 M 3.428,-97.649 c -0.092,0.465 -0.297,0.773 -0.553,0.797 -0.318,0.016 -0.944,-0.366 -1.233,-1.545 -1.771,-7.264 -2.368,-18.446 1.067,-20.769 0.599,-0.272 1.162,-0.511 1.68,-0.716 -1.385,5.469 -3.395,15.756 -0.961,22.233 M 251.356,90.265 251.04,88.168 c -5.872,-38.928 -9.926,-64.001 -12.094,-74.801 0.241,-0.215 0.495,-0.427 0.763,-0.641 0.541,-0.439 1.147,-0.874 1.896,-1.452 0.729,-0.593 1.709,-1.278 2.725,-2.752 0.49,-0.721 0.911,-1.658 1.105,-2.582 0.194,-0.938 0.188,-1.476 0.212,-2.018 0.017,-1.036 -0.03,-1.924 -0.088,-2.808 -0.12,-1.753 -0.32,-3.427 -0.542,-5.092 -0.448,-3.328 -1.002,-6.597 -1.633,-9.856 -0.635,-3.258 -1.377,-6.493 -2.21,-9.723 -0.842,-3.23 -1.782,-6.444 -3.018,-9.66 -0.622,-1.611 -1.306,-3.219 -2.233,-4.868 -0.476,-0.825 -1.001,-1.666 -1.785,-2.546 -0.421,-0.443 -0.87,-0.896 -1.579,-1.334 -0.687,-0.426 -1.746,-0.832 -2.909,-0.729 -1.06,0.196 -2.553,-0.028 -4.069,-0.273 -1.513,-0.26 -3.057,-0.607 -4.605,-0.961 -4.949,-8.623 0.364,-14.602 2.132,-20.58 1.662,-5.619 -4.144,-17.798 -10.44,-17.053 -3.076,-20.42 -5.426,-44.499 -2.586,-55.347 5.025,-19.183 7.326,-38.513 -9.146,-50.444 -8.352,-24.565 -21.457,-39.965 -40.055,-47 -16.149,-6.109 -33.068,-4.73 -47.995,-3.518 -6.819,0.557 -13.26,1.079 -18.451,0.708 l -0.421,-0.03 -0.42,0.041 c -23.195,2.261 -34.189,0.52 -42.215,-0.752 -4.033,-0.64 -7.527,-1.194 -11.41,-1.194 -5.951,0 -12.815,1.301 -23.939,5.589 -30.876,11.9 -53.874,41.667 -58.171,47.513 l -0.112,0.153 c -1.119,1.491 -2.175,2.914 0.351,15.696 -5.045,3.153 -10.811,8.361 -10.888,8.436 -3.172,3.174 -2.32,7.943 -0.91,15.845 1.067,5.979 2.395,13.42 2.349,21.662 -0.047,8.799 -2.055,27.97 -4.359,45.642 -9.269,5.446 -13.752,8.152 -7.543,16.053 4.062,5.171 2.405,12.281 -0.506,18.335 -0.201,0.03 -0.406,0.07 -0.614,0.121 l -1.199,0.299 c -0.4,0.099 -0.796,0.21 -1.186,0.391 -0.77,0.344 -1.589,0.635 -2.27,1.123 -0.704,0.455 -1.434,0.91 -1.999,1.46 -0.61,0.53 -1.205,1.075 -1.664,1.647 -0.501,0.568 -0.987,1.143 -1.36,1.714 -1.621,2.3 -2.731,4.555 -3.696,6.702 -1.887,4.321 -3.42,8.391 -5.17,12.333 l -1.334,3.002 c -0.478,1.115 -0.983,2.18 -1.404,3.383 -0.877,2.309 -1.699,4.86 -1.836,7.968 -0.061,0.748 0.04,1.602 0.083,2.394 0.118,0.81 0.28,1.651 0.51,2.437 0.272,0.764 0.526,1.583 0.895,2.238 l 0.526,1.026 0.566,0.894 c 1.533,2.341 3.06,3.94 4.385,5.611 0.314,0.391 0.623,0.776 0.925,1.16 -6.369,16.68 -15.152,61.482 -15.152,94.595 0,53.227 14.295,94.295 42.491,122.063 31.948,31.463 79.383,55.364 120.846,60.893 l 0.662,0.044 c 45.301,0 89.688,-21.839 128.361,-63.156 52.586,-56.178 55.778,-122.499 53.749,-135.904 m -142.032,-7.994 -0.117,0.075 c 0.026,-0.072 0.051,-0.145 0.076,-0.217 0.014,0.048 0.027,0.094 0.041,0.142 m 48.422,-63.446 c -27.5,13 -47,25.5 -49.5,42.5 -0.951,6.469 -0.678,11.921 0.025,16.197 -1.062,1.657 -2.128,3.295 -3.245,4.889 -2.41,3.464 -4.931,6.797 -7.651,9.87 -1.539,1.752 -3.155,3.431 -4.838,4.989 -0.105,-0.037 -0.208,-0.063 -0.319,-0.115 -0.378,-0.19 -0.773,-0.507 -1.167,-0.887 -0.768,-0.815 -1.457,-1.955 -1.985,-3.226 -1.048,-2.572 -1.527,-5.587 -1.565,-8.615 -0.02,-3.038 0.371,-6.141 1.199,-9.159 0.816,-3.024 2.067,-5.964 3.713,-8.721 -2.116,2.411 -3.935,5.141 -5.352,8.107 -1.428,2.961 -2.457,6.151 -3.046,9.477 -0.562,3.33 -0.706,6.807 0.014,10.389 0.383,1.787 0.994,3.615 2.101,5.395 0.353,0.531 0.753,1.055 1.208,1.558 -2.734,1.883 -5.614,3.354 -8.631,4.21 -0.433,0.15 -0.873,0.248 -1.315,0.336 -0.445,0.085 -0.868,0.221 -1.333,0.265 l -1.371,0.193 c -0.448,0.028 -0.897,0.051 -1.344,0.094 -1.779,0.099 -3.471,-0.078 -5.059,-0.507 -2.306,-0.594 -4.404,-1.959 -6.365,-3.815 1.095,-0.821 1.824,-1.826 2.277,-2.759 0.252,-0.501 0.407,-0.98 0.586,-1.466 0.121,-0.466 0.264,-0.941 0.35,-1.395 0.664,-3.626 0.355,-6.847 0,-10.055 -0.401,-3.189 -1.008,-6.3 -1.738,-9.369 -0.743,-3.064 -1.561,-6.107 -2.649,-9.046 0.522,3.081 0.758,6.193 0.916,9.293 0.147,3.098 0.162,6.196 -0.027,9.235 -0.205,3.001 -0.582,6.096 -1.553,8.505 -0.117,0.298 -0.263,0.548 -0.384,0.822 -0.151,0.218 -0.282,0.468 -0.428,0.636 -0.287,0.368 -0.567,0.476 -0.667,0.486 -0.117,-0.073 -0.123,-0.09 -0.37,-0.189 -0.108,-0.032 -0.305,-0.159 -0.451,-0.2 -0.204,-0.129 -0.407,-0.251 -0.61,-0.359 l -0.082,0.174 c -1.601,-2.172 -3.188,-4.487 -4.945,-6.737 -0.266,-0.335 -0.537,-0.668 -0.809,-1.001 4.625,-1.222 8.273,-20.63 -3.922,-40.332 -13,-21 -67.001,-36.667 -85.334,-33.667 -18.333,3 -14,32 -12.333,40 1.666,8 -1.334,14.334 -6.034,22.334 5.969,34.333 50.367,44.666 72.367,40.666 3.191,-0.58 5.883,-1.561 8.191,-2.812 -0.21,0.383 -0.405,0.774 -0.617,1.154 -2.872,5.17 -6.056,10.184 -9.841,14.73 -1.934,2.217 -3.95,4.416 -6.292,6.22 -2.312,1.821 -4.875,3.448 -7.823,4.208 3.038,-0.262 5.956,-1.475 8.653,-2.958 2.739,-1.467 5.19,-3.379 7.584,-5.35 4.698,-4.046 8.856,-8.678 12.708,-13.517 3.867,-4.84 7.328,-9.963 10.656,-15.173 2.951,-4.589 5.625,-9.322 8.261,-14.091 0.541,0.518 0.983,1.058 1.25,1.636 1.774,3.825 3.401,7.844 5.876,11.774 1.248,1.952 2.72,3.892 4.599,5.595 1.844,1.729 4.161,3.139 6.653,4.02 2.496,0.898 5.122,1.207 7.625,1.196 l 1.867,-0.088 1.818,-0.224 c 0.604,-0.057 1.215,-0.218 1.823,-0.331 0.612,-0.117 1.218,-0.248 1.806,-0.435 4.777,-1.351 9.02,-3.894 12.547,-6.947 1.766,-1.535 3.419,-3.16 4.883,-4.917 1.489,-1.733 2.852,-3.548 4.08,-5.43 1.095,-1.666 2.09,-3.38 3.013,-5.124 0.166,0.329 0.351,0.698 0.571,1.141 1.383,2.777 2.814,5.525 4.3,8.245 2.973,5.437 6.146,10.769 9.66,15.896 3.528,5.105 7.35,10.08 11.975,14.338 2.31,2.111 4.857,4.044 7.736,5.366 2.842,1.341 6.194,1.838 9.104,0.878 -3.041,0.452 -5.988,-0.548 -8.379,-2.191 -2.42,-1.64 -4.456,-3.79 -6.268,-6.1 -3.62,-4.643 -6.438,-9.909 -8.964,-15.276 -1.218,-2.614 -2.352,-5.269 -3.426,-7.951 4.922,4.478 12.997,8.456 27.704,11.185 32.333,6 66.667,-28.667 68,-35.667 1.333,-7 -10.27,-55.702 -8.27,-60.333 2,-4.632 -23.897,-14.667 -51.397,-1.667 M 86.615,58.254 c -6,9.667 -6.702,0.905 -6.702,-2.429 0,-3.333 -4.107,-4.114 -7.44,1.219 -3.333,5.333 -8.124,10.476 -8.059,5.45 0.137,-10.796 -14,-59.002 -16,-66.669 -2,-7.667 -6.334,-36.667 12.332,-33.333 18.668,3.333 3.116,10.333 14.783,13.333 11.666,3 1.551,-11.597 19.551,-13.597 18,-2 17,16.264 16.333,21.93 -0.667,5.667 -18.798,64.429 -24.798,74.096 m -137.337,62.894 c -2.569,-4.984 -5.368,-9.774 -8.563,-14.422 -0.401,-0.584 -0.795,-1.165 -1.236,-1.747 -0.415,-0.572 -0.879,-1.174 -1.362,-1.779 -0.162,-0.209 -0.109,-0.137 -0.159,-0.181 -0.033,-0.006 -0.067,-0.066 -0.106,-0.118 -0.082,-0.081 -0.162,-0.265 -0.248,-0.435 -0.168,-0.362 -0.318,-0.869 -0.448,-1.389 -0.47,-2.186 -0.568,-4.859 -0.566,-7.496 -0.007,-2.662 0.104,-5.381 0.176,-8.123 0.081,-2.74 0.147,-5.523 -0.019,-8.299 -1.836,5.223 -3.726,10.349 -5.013,15.85 -0.61,2.767 -1.162,5.564 -1.08,8.806 0.048,0.83 0.097,1.675 0.328,2.618 0.124,0.476 0.244,0.948 0.473,1.473 0.106,0.257 0.208,0.51 0.369,0.785 l 0.389,0.68 c 0.579,1.01 1.178,2.217 1.776,3.375 2.363,4.725 4.632,9.594 6.738,14.451 l 1.554,3.645 c 0.478,1.22 1.007,2.433 1.445,3.655 0.967,2.428 1.794,4.855 2.491,7.242 l 0.492,1.767 c 0.142,0.577 0.247,1.138 0.375,1.707 0.245,1.168 0.437,2.527 0.626,3.797 0.416,2.58 0.703,5.186 0.968,7.786 0.2,2.005 0.342,4.011 0.45,6.014 l -0.476,0.034 c 0.175,1.548 0.39,3.086 0.633,4.616 0.018,1.638 0.012,3.272 -0.051,4.897 -0.222,5.131 -0.893,10.229 -2.707,14.889 -0.905,2.326 -2.141,4.52 -3.81,6.454 -1.67,1.924 -3.802,3.574 -6.304,4.792 2.771,-0.163 5.607,-1.057 8.094,-2.655 2.508,-1.574 4.633,-3.784 6.332,-6.232 1.064,-1.552 1.953,-3.188 2.724,-4.869 1.268,3.746 2.727,7.421 4.39,11.001 4.835,10.291 11.392,19.781 19.521,27.626 8.112,7.854 17.741,14.004 28.073,18.096 5.17,2.042 10.492,3.606 15.877,4.787 5.396,1.149 10.861,1.811 16.322,2.246 -5.416,-0.849 -10.785,-1.921 -16.016,-3.458 -5.218,-1.568 -10.308,-3.499 -15.17,-5.861 -9.722,-4.735 -18.425,-11.319 -25.479,-19.274 -7.073,-7.951 -12.479,-17.239 -16.226,-27.093 -3.704,-9.863 -5.864,-20.333 -6.229,-30.678 l -0.471,0.034 c 0.057,-1.999 0.051,-3.995 -0.01,-5.983 -0.095,-2.835 -0.333,-5.656 -0.644,-8.475 -0.178,-1.429 -0.356,-2.77 -0.635,-4.275 -0.154,-0.763 -0.296,-1.543 -0.468,-2.291 l -0.577,-2.177 c -0.01,-0.035 -0.024,-0.067 -0.033,-0.102 3.033,1.36 6.099,2.522 9.182,3.583 3.72,1.276 7.478,2.369 11.268,3.306 1.893,0.471 3.798,0.898 5.712,1.26 1.915,0.335 3.846,0.724 5.797,0.669 -1.914,-0.278 -3.723,-0.982 -5.529,-1.632 -1.801,-0.676 -3.577,-1.414 -5.336,-2.191 -3.516,-1.548 -6.965,-3.238 -10.307,-5.076 -3.336,-1.839 -6.602,-3.786 -9.617,-5.945 l -2.188,-1.664 c -0.73,-0.549 -1.352,-1.169 -2.028,-1.741 -0.325,-0.264 -0.6,-0.55 -0.863,-0.838 -0.828,-1.841 -1.687,-3.658 -2.601,-5.442"
             style="fill:#000000;fill-opacity:1;fill-rule:nonzero;stroke:none"
             id="path11317" />
        </g>
        <g
           id="g11319"
           transform="translate(518.2617,185.4639)">
          <path
             d="M 0,0 0.048,-0.023 Z"
             style="fill:#000000;fill-opacity:1;fill-rule:nonzero;stroke:none"
             id="path11321" />
        </g>
      </g>
    </g>
  </g>
</svg>
